<?xml version="1.0" standalone="no"?>
<!DOCTYPE svg PUBLIC "-//W3C//DTD SVG 20010904//EN"
 "http://www.w3.org/TR/2001/REC-SVG-20010904/DTD/svg10.dtd">
<svg version="1.0" xmlns="http://www.w3.org/2000/svg"
 width="370.000000pt" height="370.000000pt" viewBox="0 0 370.000000 370.000000"
 preserveAspectRatio="xMidYMid meet">
<metadata>
Created by potrace 1.11, written by Peter Selinger 2001-2013
</metadata>
<g transform="translate(0.000000,370.000000) scale(0.100000,-0.100000)"
fill="#000000" stroke="none">
<path d="M1314 3693 l-1301 -3 -6 -1178 c-4 -647 -7 -1475 -7 -1839 l0 -663
663 0 c365 0 1198 -3 1850 -7 l1187 -6 0 1851 0 1852 -542 -2 c-299 -2 -1128
-4 -1844 -5z m1154 -1485 l-3 -63 -590 0 -590 0 -3 63 -3 62 596 0 596 0 -3
-62z m-1834 5 c-4 -16 -8 -30 -10 -32 -6 -7 -11 2 -18 32 -5 23 -3 27 14 27
17 0 19 -4 14 -27z m51 17 c3 -5 0 -10 -7 -10 -9 0 -9 -3 2 -10 13 -9 13 -10
0 -10 -13 0 -13 -1 0 -10 12 -8 11 -10 -7 -10 -17 0 -23 6 -23 23 0 34 21 50
35 27z m22 -37 c-3 -10 -5 -2 -5 17 0 19 2 27 5 18 2 -10 2 -26 0 -35z m67 36
c10 8 13 4 13 -18 0 -22 -5 -29 -19 -28 -13 1 -18 9 -17 32 0 16 3 24 6 17 3
-9 9 -10 17 -3z m101 -3 c13 18 14 17 15 -16 0 -23 -3 -31 -9 -21 -7 11 -9 11
-14 0 -5 -12 -7 -12 -15 0 -8 11 -10 11 -15 0 -3 -8 -6 2 -6 21 0 33 1 34 14
16 15 -20 15 -20 30 0z m110 4 c3 -5 1 -10 -4 -10 -13 0 -10 -22 4 -32 6 -4 1
-8 -11 -8 -16 0 -21 6 -22 30 -1 30 19 42 33 20z m42 -10 c-1 -11 -6 -20 -12
-20 -5 0 -3 -5 5 -10 13 -8 12 -10 -2 -10 -13 0 -18 8 -18 30 0 19 5 30 14 30
9 0 14 -9 13 -20z m68 10 c4 7 13 6 27 -1 l20 -11 -21 -19 c-25 -23 -29 -24
-33 -2 -3 16 -4 16 -20 0 -22 -23 -28 -21 -28 6 0 31 9 38 31 27 12 -7 20 -7
24 0z m85 0 c0 -5 -6 -10 -12 -10 -9 0 -8 -4 2 -10 13 -9 13 -10 0 -10 -13 0
-13 -1 0 -10 13 -8 12 -10 -2 -10 -13 0 -18 8 -18 30 0 20 5 30 15 30 8 0 15
-4 15 -10z m45 0 c3 -5 1 -10 -4 -10 -13 0 -10 -22 4 -32 6 -4 1 -8 -11 -8
-16 0 -21 6 -21 30 0 29 19 41 32 20z m1418 -27 c-4 -11 -2 -14 5 -9 8 4 12 0
12 -11 0 -13 -8 -19 -25 -21 -31 -2 -39 15 -25 52 8 23 13 26 25 16 7 -6 11
-19 8 -27z m89 20 c-10 -4 -8 -9 5 -18 17 -13 17 -15 1 -31 -20 -20 -38 -11
-38 21 0 23 29 50 40 38 3 -3 -1 -8 -8 -10z m-180 0 c-10 -4 -9 -8 5 -18 17
-13 17 -15 1 -31 -14 -14 -20 -15 -30 -6 -9 9 -8 12 5 12 9 0 17 5 17 10 0 6
-7 10 -15 10 -8 0 -15 7 -15 15 0 9 9 15 23 14 12 0 16 -3 9 -6z m265 -19 c5
-15 7 -15 15 0 14 25 28 19 28 -13 0 -26 -3 -28 -35 -27 -31 1 -35 4 -35 29 0
29 17 37 27 11z m97 -6 c8 -33 8 -33 -19 -33 -25 0 -30 10 -19 39 9 23 31 19
38 -6z m36 -2 c0 -14 -4 -28 -10 -31 -6 -4 -10 7 -10 24 0 17 5 31 10 31 6 0
10 -11 10 -24z m55 -6 c0 -29 -32 -41 -41 -16 -9 24 4 48 23 44 12 -2 18 -12
18 -28z m36 18 c0 -10 2 -10 6 0 11 27 21 10 10 -18 l-11 -30 -13 23 c-15 27
-16 37 -3 37 6 0 10 -6 11 -12z m-2393 -135 c-2 -10 -13 -19 -26 -21 -24 -4
-25 -2 -16 22 9 23 46 21 42 -1z m70 0 c-2 -10 -13 -19 -26 -21 -24 -4 -25 -2
-16 22 9 23 46 21 42 -1z m70 0 c-2 -10 -13 -19 -26 -21 -24 -4 -25 -2 -16 22
9 23 46 21 42 -1z m72 13 c0 -18 -15 -36 -31 -36 -21 0 -22 1 -13 24 5 14 44
24 44 12z m68 -13 c-2 -10 -13 -19 -26 -21 -24 -4 -25 -2 -16 22 9 23 46 21
42 -1z m70 0 c-2 -10 -13 -19 -26 -21 -24 -4 -25 -2 -16 22 9 23 46 21 42 -1z
m72 13 c0 -18 -15 -36 -31 -36 -21 0 -22 1 -13 24 5 14 44 24 44 12z m70 0 c0
-18 -15 -36 -31 -36 -21 0 -22 1 -13 24 5 14 44 24 44 12z m70 0 c0 -18 -15
-36 -31 -36 -21 0 -22 1 -13 24 5 14 44 24 44 12z m70 0 c0 -18 -15 -36 -31
-36 -21 0 -22 1 -13 24 5 14 44 24 44 12z m70 0 c0 -18 -15 -36 -31 -36 -21 0
-22 1 -13 24 5 14 44 24 44 12z m70 0 c0 -18 -15 -36 -31 -36 -21 0 -22 1 -13
24 5 14 44 24 44 12z m70 0 c0 -18 -15 -36 -31 -36 -18 0 -26 20 -12 33 7 8
43 10 43 3z m70 0 c0 -18 -15 -36 -31 -36 -18 0 -26 20 -12 33 7 8 43 10 43 3z
m70 0 c0 -18 -15 -36 -31 -36 -21 0 -22 1 -13 24 5 14 44 24 44 12z m70 0 c0
-20 -16 -36 -36 -36 -22 0 -23 3 -14 20 9 17 50 30 50 16z m70 0 c0 -18 -15
-36 -31 -36 -18 0 -26 20 -12 33 7 8 43 10 43 3z m70 0 c0 -18 -15 -36 -31
-36 -18 0 -26 20 -12 33 7 8 43 10 43 3z m68 -13 c-2 -10 -13 -19 -26 -21 -24
-4 -25 -2 -16 22 9 23 46 21 42 -1z m70 0 c-2 -10 -13 -19 -26 -21 -24 -4 -25
-2 -16 22 9 23 46 21 42 -1z m70 0 c-2 -10 -13 -19 -26 -21 -24 -4 -25 -2 -16
22 9 23 46 21 42 -1z m70 0 c-2 -10 -13 -19 -26 -21 -24 -4 -25 -2 -16 22 9
23 46 21 42 -1z m70 0 c-2 -10 -13 -19 -26 -21 -24 -4 -25 -2 -16 22 9 23 46
21 42 -1z m70 0 c-2 -10 -13 -19 -26 -21 -24 -4 -25 -2 -16 22 9 23 46 21 42
-1z m72 13 c0 -18 -15 -36 -31 -36 -21 0 -22 1 -13 24 5 14 44 24 44 12z m70
0 c0 -18 -15 -36 -31 -36 -21 0 -22 1 -13 24 5 14 44 24 44 12z m68 -13 c-2
-10 -13 -19 -26 -21 -24 -4 -25 -2 -16 22 9 23 46 21 42 -1z m72 13 c0 -18
-15 -36 -31 -36 -21 0 -22 1 -13 24 5 14 44 24 44 12z m70 0 c0 -18 -15 -36
-31 -36 -21 0 -22 1 -13 24 5 14 44 24 44 12z m70 0 c0 -18 -15 -36 -31 -36
-21 0 -22 1 -13 24 5 14 44 24 44 12z m70 0 c0 -18 -15 -36 -31 -36 -18 0 -26
20 -12 33 7 8 43 10 43 3z m70 0 c0 -18 -15 -36 -31 -36 -21 0 -22 1 -13 24 5
14 44 24 44 12z m70 0 c0 -18 -15 -36 -31 -36 -21 0 -22 1 -13 24 5 14 44 24
44 12z m70 0 c0 -18 -15 -36 -31 -36 -18 0 -26 20 -12 33 7 8 43 10 43 3z m70
0 c0 -18 -15 -36 -31 -36 -18 0 -26 20 -12 33 7 8 43 10 43 3z m70 0 c0 -18
-15 -36 -31 -36 -21 0 -22 1 -13 24 5 14 44 24 44 12z m-2222 -198 l-3 -73
-132 -3 -133 -3 0 76 0 75 135 0 136 0 -3 -72z m72 -58 c0 -109 -2 -130 -15
-130 -13 0 -15 21 -15 130 0 109 2 130 15 130 13 0 15 -21 15 -130z m50 85 c0
-33 4 -45 15 -45 11 0 15 12 15 45 0 38 3 45 19 45 19 0 20 -8 20 -130 0 -122
-1 -130 -20 -130 -16 0 -19 7 -19 45 0 33 -4 45 -15 45 -11 0 -15 -12 -15 -45
0 -38 -3 -45 -19 -45 -19 0 -20 8 -20 130 0 122 1 130 20 130 16 0 19 -7 19
-45z m110 -85 c0 -109 -2 -130 -15 -130 -13 0 -15 21 -15 130 0 109 2 130 15
130 13 0 15 -21 15 -130z m197 118 c6 -7 26 -58 46 -113 19 -55 38 -108 42
-117 6 -16 -1 -18 -69 -18 -61 0 -76 3 -76 15 0 11 12 15 50 15 55 0 58 6 34
55 -14 29 -14 23 0 -22 7 -22 5 -23 -43 -23 -41 0 -51 -4 -56 -20 -7 -22 -35
-28 -36 -7 0 10 -2 10 -6 0 -2 -7 -13 -13 -24 -13 -17 0 -15 9 21 110 22 61
44 119 50 130 12 22 52 27 67 8z m300 -28 l0 -40 -48 0 -49 0 0 -50 0 -50 49
0 48 0 0 -40 0 -40 -62 0 c-89 0 -108 17 -113 103 -8 125 14 157 112 157 l63
0 0 -40z m83 -90 c0 -109 -2 -130 -15 -130 -13 0 -15 21 -15 130 0 109 2 130
15 130 13 0 15 -21 15 -130z m50 93 l0 -38 25 38 c14 20 33 37 42 37 17 0 19
5 -45 -92 l-25 -38 42 -62 c33 -52 38 -64 24 -67 -9 -1 -20 3 -24 10 -4 8 -15
23 -23 34 -15 19 -15 19 -16 -12 0 -26 -4 -33 -20 -33 -18 0 -19 8 -19 130 0
123 1 130 19 130 16 0 20 -7 20 -37z m90 -22 c-22 -33 -40 -65 -40 -71 0 -6
18 -38 40 -71 35 -51 38 -59 22 -59 -13 0 -34 22 -61 64 l-42 64 43 66 c26 40
50 66 61 66 14 0 10 -11 -23 -59z m209 45 c9 -11 91 -228 91 -241 0 -3 -34 -5
-75 -5 -59 0 -75 3 -75 15 0 10 15 15 54 17 l54 3 -14 30 c-13 30 -13 30 -8 3
6 -28 5 -28 -44 -28 -40 0 -51 -4 -55 -19 -3 -14 -14 -19 -41 -19 -20 0 -36 4
-36 8 0 21 82 235 93 242 19 12 43 9 56 -6z m308 -26 c0 -35 -2 -40 -23 -40
-23 0 -24 -2 -24 -90 0 -83 -1 -90 -20 -90 -19 0 -20 7 -22 113 l-2 112 -3
-112 c-3 -91 -6 -113 -18 -113 -12 0 -15 18 -15 90 l0 90 -29 0 c-26 0 -28 3
-28 40 l0 40 92 0 92 0 0 -40z m83 -95 c0 -104 -2 -125 -15 -125 -13 0 -15 21
-15 125 0 104 2 125 15 125 13 0 15 -21 15 -125z m50 85 c0 -29 4 -40 15 -40
11 0 15 11 15 40 0 29 4 40 15 40 12 0 15 -13 15 -60 l0 -60 -50 0 -50 0 0 60
c0 53 2 60 20 60 17 0 20 -7 20 -40z m100 -85 c0 -104 -2 -125 -15 -125 -13 0
-15 21 -15 125 0 104 2 125 15 125 13 0 15 -21 15 -125z m214 109 c23 -23 23
-190 -1 -216 -22 -24 -109 -25 -135 -1 -25 23 -27 187 -1 215 21 24 114 25
137 2z m230 -6 c23 -32 23 -228 1 -228 -12 0 -15 17 -15 94 0 117 -7 126 -91
126 -46 0 -59 3 -59 15 0 12 15 15 74 15 66 0 77 -3 90 -22z m-36 -30 c8 -8
12 -46 12 -105 0 -86 -1 -93 -20 -93 -18 0 -20 7 -20 85 0 50 -4 85 -10 85 -6
0 -10 -35 -10 -85 0 -69 -3 -85 -15 -85 -12 0 -15 16 -15 85 0 47 -3 85 -7 85
-5 0 -7 -38 -5 -85 3 -81 3 -85 -18 -85 -21 0 -21 4 -19 98 1 53 4 100 6 105
7 12 108 8 121 -5z m-448 -138 c0 -46 -3 -60 -14 -60 -10 0 -16 13 -18 42 -4
59 -28 63 -28 4 0 -39 -3 -46 -20 -46 -18 0 -20 7 -20 60 l0 60 50 0 50 0 0
-60z m-1909 1 c-9 -6 -10 -11 -2 -15 18 -11 13 -46 -6 -46 -15 0 -16 2 -3 10
12 7 12 12 2 22 -18 18 -15 38 6 38 13 0 14 -2 3 -9z m53 1 c-6 -4 -11 -16
-11 -27 0 -11 5 -23 11 -27 6 -5 1 -8 -11 -8 -20 0 -23 5 -23 35 0 30 3 35 23
35 12 0 17 -3 11 -8z m52 -32 c2 -30 0 -32 -11 -16 -13 17 -13 17 -18 -1 -3
-10 -5 -1 -6 20 -1 31 2 38 16 35 12 -2 18 -14 19 -38z m51 4 c-1 -31 -3 -33
-13 -19 -11 15 -13 15 -17 -2 -3 -10 -5 -1 -6 20 -1 30 3 37 18 37 15 0 19 -7
18 -36z m35 29 c-10 -4 -10 -8 -1 -19 9 -11 9 -14 -1 -14 -10 0 -10 -3 0 -15
10 -12 10 -15 -4 -15 -12 0 -16 9 -16 35 0 27 4 35 18 34 11 0 12 -2 4 -6z
m49 -2 c-12 -8 -12 -12 -2 -25 15 -18 7 -36 -17 -36 -15 0 -15 2 -2 10 12 7
12 12 2 22 -19 19 -14 38 11 38 17 0 19 -2 8 -9z m1700 -157 c217 -14 276 -21
272 -31 -3 -7 0 -13 6 -13 6 0 11 5 11 10 0 12 46 13 153 4 l75 -7 7 -36 c3
-20 9 -45 11 -57 5 -21 4 -21 -278 -28 -156 -3 -381 -9 -500 -12 l-218 -7 29
84 c46 133 36 122 100 116 31 -3 180 -13 332 -23z m-1921 -58 c0 -18 -15 -36
-31 -36 -18 0 -26 20 -12 33 7 8 43 10 43 3z m70 0 c0 -18 -15 -36 -31 -36
-21 0 -22 1 -13 24 5 14 44 24 44 12z m70 0 c0 -18 -15 -36 -31 -36 -21 0 -22
1 -13 24 5 14 44 24 44 12z m70 0 c0 -18 -15 -36 -31 -36 -18 0 -26 20 -12 33
7 8 43 10 43 3z m70 0 c0 -18 -15 -36 -31 -36 -18 0 -26 20 -12 33 7 8 43 10
43 3z m70 0 c0 -18 -15 -36 -31 -36 -18 0 -26 20 -12 33 7 8 43 10 43 3z m70
0 c0 -18 -15 -36 -31 -36 -18 0 -26 20 -12 33 7 8 43 10 43 3z m70 0 c0 -18
-15 -36 -31 -36 -18 0 -26 20 -12 33 7 8 43 10 43 3z m70 0 c0 -18 -15 -36
-31 -36 -18 0 -26 20 -12 33 7 8 43 10 43 3z m70 0 c0 -20 -16 -36 -36 -36
-22 0 -23 3 -14 20 9 17 50 30 50 16z m70 0 c0 -18 -15 -36 -31 -36 -18 0 -26
20 -12 33 7 8 43 10 43 3z m70 0 c0 -18 -15 -36 -31 -36 -18 0 -26 20 -12 33
7 8 43 10 43 3z m70 0 c0 -20 -16 -36 -36 -36 -22 0 -23 3 -14 20 9 17 50 30
50 16z m70 0 c0 -20 -16 -36 -36 -36 -22 0 -23 3 -14 20 9 17 50 30 50 16z
m70 0 c0 -20 -16 -36 -36 -36 -22 0 -23 3 -14 20 9 17 50 30 50 16z m60 -16
c-6 -11 -20 -20 -31 -20 -17 0 -18 3 -9 20 6 11 20 20 31 20 17 0 18 -3 9 -20z
m80 12 c0 -14 -24 -32 -42 -32 -16 0 -17 3 -8 20 10 19 50 29 50 12z m70 4 c0
-20 -16 -36 -36 -36 -22 0 -23 3 -14 20 9 17 50 30 50 16z m60 -16 c-9 -17
-50 -30 -50 -16 0 20 16 36 36 36 22 0 23 -3 14 -20z m68 3 c-2 -10 -13 -19
-26 -21 -24 -4 -25 -2 -16 22 9 23 46 21 42 -1z m72 -3 c-9 -17 -50 -30 -50
-16 0 20 16 36 36 36 22 0 23 -3 14 -20z m70 0 c-9 -17 -50 -30 -50 -16 0 20
16 36 36 36 22 0 23 -3 14 -20z"/>
<path d="M1384 2215 c-8 -19 4 -35 24 -34 15 1 15 2 0 6 -10 2 -18 11 -18 18
0 7 8 16 18 18 16 4 16 5 -1 6 -10 0 -20 -6 -23 -14z"/>
<path d="M1434 2215 c-3 -8 -3 -19 1 -25 9 -14 32 -13 38 3 4 10 6 10 6 0 1
-7 10 -13 20 -13 20 0 31 17 24 38 -7 19 -37 14 -51 -8 -14 -23 -32 -26 -32
-6 0 8 8 17 18 19 16 4 16 5 -1 6 -10 0 -20 -6 -23 -14z m78 -10 c0 -5 -5 -11
-11 -13 -6 -2 -11 4 -11 13 0 9 5 15 11 13 6 -2 11 -8 11 -13z"/>
<path d="M1535 2205 c0 -19 5 -25 23 -25 12 0 22 4 22 10 0 5 -7 7 -15 3 -21
-7 -15 20 5 29 10 4 7 7 -10 7 -20 1 -25 -4 -25 -24z"/>
<path d="M1768 2223 c6 -2 18 -2 25 0 6 3 1 5 -13 5 -14 0 -19 -2 -12 -5z"/>
<path d="M1827 2206 c10 -13 19 -20 21 -15 2 5 -3 16 -11 24 -24 23 -30 18
-10 -9z"/>
<path d="M1888 2208 c4 -17 2 -20 -12 -15 -10 4 -15 3 -11 -3 12 -19 33 -10
37 15 4 16 1 25 -7 25 -9 0 -11 -8 -7 -22z"/>
<path d="M1933 2224 c9 -3 17 -12 17 -20 0 -17 -12 -18 -29 -1 -10 10 -11 8
-5 -6 9 -24 39 -17 39 8 0 12 -7 20 -20 22 -16 1 -16 1 -2 -3z"/>
<path d="M1978 2203 c2 -13 9 -23 14 -23 5 0 6 5 3 10 -4 6 -1 17 5 25 9 11 8
14 -7 12 -15 -1 -18 -7 -15 -24z"/>
<path d="M2221 2211 c-1 -16 3 -21 13 -18 8 3 17 1 20 -6 4 -7 4 -2 2 11 -2
12 1 22 7 22 6 0 7 3 4 6 -4 4 -13 2 -21 -5 -11 -9 -15 -9 -19 1 -3 7 -6 2 -6
-11z"/>
<path d="M2285 2205 c0 -14 5 -25 10 -25 6 0 10 11 10 25 0 14 -4 25 -10 25
-5 0 -10 -11 -10 -25z"/>
<path d="M2328 2218 c8 -8 9 -15 1 -25 -8 -9 -8 -13 0 -13 6 0 11 4 11 10 0 5
7 7 15 4 10 -4 15 0 15 15 0 12 -5 21 -11 21 -5 0 -7 -6 -3 -12 6 -10 4 -10
-7 0 -17 15 -37 16 -21 0z"/>
<path d="M1652 2211 c2 -7 7 -12 11 -12 12 1 9 15 -3 20 -7 2 -11 -2 -8 -8z"/>
<path d="M2100 2205 c0 -8 5 -15 10 -15 6 0 10 7 10 15 0 8 -4 15 -10 15 -5 0
-10 -7 -10 -15z"/>
<path d="M1768 2183 c6 -2 18 -2 25 0 6 3 1 5 -13 5 -14 0 -19 -2 -12 -5z"/>
<path d="M2715 2190 c-3 -5 -1 -10 4 -10 6 0 11 5 11 10 0 6 -2 10 -4 10 -3 0
-8 -4 -11 -10z"/>
<path d="M2976 2201 c-4 -7 -5 -15 -2 -18 9 -9 19 4 14 18 -4 11 -6 11 -12 0z"/>
<path d="M660 1890 c0 -16 4 -30 10 -30 5 0 7 8 3 18 -6 16 -5 16 14 -1 20
-18 21 -17 25 13 3 16 1 30 -4 30 -4 0 -8 -8 -8 -17 -1 -17 -1 -17 -14 0 -19
25 -26 21 -26 -13z"/>
<path d="M790 1911 c0 -6 6 -8 14 -5 19 7 15 -29 -4 -38 -11 -5 -9 -7 7 -7 18
-1 21 4 19 27 -3 25 -36 47 -36 23z"/>
<path d="M731 1900 c-17 -10 -7 -40 14 -40 8 0 15 9 15 19 0 24 -12 32 -29 21z
m15 -27 c-10 -10 -19 5 -10 18 6 11 8 11 12 0 2 -7 1 -15 -2 -18z"/>
<path d="M1260 1910 c0 -5 7 -7 15 -4 8 4 15 8 15 10 0 2 -7 4 -15 4 -8 0 -15
-4 -15 -10z"/>
<path d="M1221 1799 c-11 -34 -19 -64 -17 -66 2 -2 13 24 25 58 11 34 19 64
17 66 -2 2 -13 -24 -25 -58z"/>
<path d="M1266 1806 c-8 -32 -4 -39 17 -34 13 2 13 8 3 33 l-13 30 -7 -29z"/>
<path d="M1476 1904 c-3 -9 -6 -42 -6 -74 0 -70 7 -90 29 -90 14 1 14 2 -1 11
-14 8 -18 24 -18 79 0 55 4 71 18 79 15 9 15 10 1 11 -9 0 -20 -7 -23 -16z"/>
<path d="M1995 1909 c-4 -6 -4 -13 -1 -16 3 -4 6 -1 6 5 0 23 18 12 24 -14 4
-15 9 -24 12 -22 7 8 -14 58 -25 58 -5 0 -13 -5 -16 -11z"/>
<path d="M1966 1834 c-9 -26 -14 -49 -12 -51 2 -2 11 17 20 43 9 26 14 49 12
51 -2 2 -11 -17 -20 -43z"/>
<path d="M2000 1818 c0 -9 -3 -23 -6 -32 -4 -12 0 -16 16 -16 18 0 20 4 15 23
-10 30 -25 46 -25 25z"/>
<path d="M2682 1908 c-13 -13 -17 -154 -4 -161 4 -3 7 32 7 76 l0 82 40 0 40
0 0 -80 0 -80 -35 -6 c-35 -6 -35 -6 -5 -8 46 -2 55 14 55 94 0 80 -9 95 -55
95 -17 0 -36 -5 -43 -12z"/>
<path d="M2710 1825 c0 -33 4 -45 15 -45 11 0 15 12 15 45 0 33 -4 45 -15 45
-11 0 -15 -12 -15 -45z"/>
<path d="M2180 1526 c0 -42 2 -46 25 -46 18 0 29 8 37 26 15 33 1 58 -36 62
-25 3 -26 1 -26 -42z m50 -1 c0 -7 -7 -18 -15 -25 -13 -11 -15 -7 -15 25 0 32
2 36 15 25 8 -7 15 -18 15 -25z"/>
<path d="M2667 1563 c-8 -13 -26 -83 -21 -83 2 0 13 6 24 13 17 10 22 9 30 -3
16 -26 22 -3 9 39 -11 37 -31 53 -42 34z m23 -28 c0 -8 -4 -15 -10 -15 -5 0
-7 7 -4 15 4 8 8 15 10 15 2 0 4 -7 4 -15z"/>
<path d="M2337 1553 c-8 -14 5 -73 17 -73 14 0 13 73 -2 78 -5 1 -12 -1 -15
-5z"/>
<path d="M2794 1546 c-11 -28 1 -61 21 -63 11 -2 14 0 8 3 -16 7 -17 51 -1 56
7 3 5 7 -5 11 -11 4 -20 1 -23 -7z"/>
<path d="M2270 1541 c0 -6 7 -8 15 -5 8 4 15 2 15 -4 0 -5 -9 -12 -20 -15 -33
-9 -25 -37 11 -37 28 0 30 2 27 33 -2 24 -8 33 -25 35 -13 2 -23 -1 -23 -7z
m30 -41 c0 -5 -4 -10 -10 -10 -5 0 -10 5 -10 10 0 6 5 10 10 10 6 0 10 -4 10
-10z"/>
<path d="M2403 1544 c23 -7 22 -20 -4 -27 -29 -8 -19 -31 15 -35 26 -3 27 -1
24 30 -2 27 -7 33 -28 35 -14 1 -18 0 -7 -3z m17 -44 c0 -5 -4 -10 -10 -10 -5
0 -10 5 -10 10 0 6 5 10 10 10 6 0 10 -4 10 -10z"/>
<path d="M2500 1515 c0 -19 5 -35 10 -35 6 0 10 16 10 35 0 19 -4 35 -10 35
-5 0 -10 -16 -10 -35z"/>
<path d="M2530 1513 c0 -18 5 -33 10 -33 6 0 10 11 10 24 0 38 18 40 29 4 l9
-33 1 37 c1 34 -1 37 -29 36 -27 -1 -30 -4 -30 -35z"/>
<path d="M2734 1536 c-11 -28 1 -51 26 -53 15 -1 18 0 8 3 -10 3 -18 14 -18
24 0 11 8 24 18 29 15 9 14 10 -6 11 -12 0 -25 -6 -28 -14z"/>
<path d="M2840 1515 c0 -19 5 -35 10 -35 6 0 10 16 10 35 0 19 -4 35 -10 35
-5 0 -10 -16 -10 -35z"/>
<path d="M2881 1532 c-12 -23 4 -52 29 -52 23 0 36 36 20 55 -17 20 -37 19
-49 -3z m35 -28 c-4 -12 -10 -14 -17 -7 -5 5 -7 17 -3 27 4 12 10 14 17 7 5
-5 7 -17 3 -27z"/>
<path d="M2950 1513 c0 -18 5 -33 10 -33 6 0 10 11 10 24 0 38 18 40 29 4 l9
-33 1 37 c1 34 -1 37 -29 36 -27 -1 -30 -4 -30 -35z"/>
</g>
</svg>
